<mxfile host="app.diagrams.net" agent="Mozilla/5.0 (Windows NT 10.0; Win64; x64) AppleWebKit/537.36 (KHTML, like Gecko) Chrome/128.0.0.0 Safari/537.36" version="24.7.8">
  <diagram name="Page-1" id="_P12ifLeTtYR8_Qt-F3h">
    <mxGraphModel dx="1194" dy="716" grid="1" gridSize="10" guides="1" tooltips="1" connect="1" arrows="1" fold="1" page="1" pageScale="1" pageWidth="850" pageHeight="1100" math="0" shadow="0">
      <root>
        <mxCell id="0" />
        <mxCell id="1" parent="0" />
        <mxCell id="TvlSTCDLhmuhTMKVUK1M-16" style="edgeStyle=orthogonalEdgeStyle;rounded=0;orthogonalLoop=1;jettySize=auto;html=1;exitX=0.5;exitY=1;exitDx=0;exitDy=0;entryX=0.5;entryY=0;entryDx=0;entryDy=0;" edge="1" parent="1" source="TvlSTCDLhmuhTMKVUK1M-1" target="TvlSTCDLhmuhTMKVUK1M-2">
          <mxGeometry relative="1" as="geometry" />
        </mxCell>
        <mxCell id="TvlSTCDLhmuhTMKVUK1M-1" value="Start" style="ellipse;whiteSpace=wrap;html=1;aspect=fixed;fillColor=none;" vertex="1" parent="1">
          <mxGeometry x="95" y="20" width="80" height="80" as="geometry" />
        </mxCell>
        <mxCell id="TvlSTCDLhmuhTMKVUK1M-17" style="edgeStyle=orthogonalEdgeStyle;rounded=0;orthogonalLoop=1;jettySize=auto;html=1;exitX=0.5;exitY=1;exitDx=0;exitDy=0;entryX=0.5;entryY=0;entryDx=0;entryDy=0;" edge="1" parent="1" source="TvlSTCDLhmuhTMKVUK1M-2" target="TvlSTCDLhmuhTMKVUK1M-5">
          <mxGeometry relative="1" as="geometry" />
        </mxCell>
        <mxCell id="TvlSTCDLhmuhTMKVUK1M-2" value="var money&lt;div&gt;var message&lt;/div&gt;" style="whiteSpace=wrap;html=1;aspect=fixed;fillColor=none;" vertex="1" parent="1">
          <mxGeometry x="95" y="110" width="80" height="80" as="geometry" />
        </mxCell>
        <mxCell id="TvlSTCDLhmuhTMKVUK1M-11" style="edgeStyle=orthogonalEdgeStyle;rounded=0;orthogonalLoop=1;jettySize=auto;html=1;exitX=1;exitY=0.5;exitDx=0;exitDy=0;entryX=0;entryY=0.5;entryDx=0;entryDy=0;" edge="1" parent="1" source="TvlSTCDLhmuhTMKVUK1M-4" target="TvlSTCDLhmuhTMKVUK1M-8">
          <mxGeometry relative="1" as="geometry" />
        </mxCell>
        <mxCell id="TvlSTCDLhmuhTMKVUK1M-19" style="edgeStyle=orthogonalEdgeStyle;rounded=0;orthogonalLoop=1;jettySize=auto;html=1;exitX=0.5;exitY=1;exitDx=0;exitDy=0;entryX=0.5;entryY=0;entryDx=0;entryDy=0;" edge="1" parent="1" source="TvlSTCDLhmuhTMKVUK1M-4" target="TvlSTCDLhmuhTMKVUK1M-6">
          <mxGeometry relative="1" as="geometry" />
        </mxCell>
        <mxCell id="TvlSTCDLhmuhTMKVUK1M-4" value="if money&amp;nbsp; &amp;gt;=1 or money &amp;lt;= 3" style="rhombus;whiteSpace=wrap;html=1;fillColor=none;" vertex="1" parent="1">
          <mxGeometry x="80" y="290" width="110" height="110" as="geometry" />
        </mxCell>
        <mxCell id="TvlSTCDLhmuhTMKVUK1M-18" style="edgeStyle=orthogonalEdgeStyle;rounded=0;orthogonalLoop=1;jettySize=auto;html=1;exitX=0.5;exitY=1;exitDx=0;exitDy=0;entryX=0.5;entryY=0;entryDx=0;entryDy=0;" edge="1" parent="1" source="TvlSTCDLhmuhTMKVUK1M-5" target="TvlSTCDLhmuhTMKVUK1M-4">
          <mxGeometry relative="1" as="geometry" />
        </mxCell>
        <mxCell id="TvlSTCDLhmuhTMKVUK1M-5" value="money =&amp;nbsp; &quot;How much money do you have?&quot;" style="shape=parallelogram;perimeter=parallelogramPerimeter;whiteSpace=wrap;html=1;fixedSize=1;fillColor=none;" vertex="1" parent="1">
          <mxGeometry x="60" y="200" width="150" height="80" as="geometry" />
        </mxCell>
        <mxCell id="TvlSTCDLhmuhTMKVUK1M-12" style="edgeStyle=orthogonalEdgeStyle;rounded=0;orthogonalLoop=1;jettySize=auto;html=1;exitX=1;exitY=0.5;exitDx=0;exitDy=0;entryX=0;entryY=0.5;entryDx=0;entryDy=0;" edge="1" parent="1" source="TvlSTCDLhmuhTMKVUK1M-6" target="TvlSTCDLhmuhTMKVUK1M-9">
          <mxGeometry relative="1" as="geometry" />
        </mxCell>
        <mxCell id="TvlSTCDLhmuhTMKVUK1M-20" style="edgeStyle=orthogonalEdgeStyle;rounded=0;orthogonalLoop=1;jettySize=auto;html=1;exitX=0.5;exitY=1;exitDx=0;exitDy=0;entryX=0.5;entryY=0;entryDx=0;entryDy=0;" edge="1" parent="1" source="TvlSTCDLhmuhTMKVUK1M-6" target="TvlSTCDLhmuhTMKVUK1M-7">
          <mxGeometry relative="1" as="geometry" />
        </mxCell>
        <mxCell id="TvlSTCDLhmuhTMKVUK1M-6" value="if money&amp;nbsp; &amp;gt;= 4 or money&amp;nbsp; &amp;lt;= 9&amp;nbsp;" style="rhombus;whiteSpace=wrap;html=1;fillColor=none;" vertex="1" parent="1">
          <mxGeometry x="80" y="410" width="110" height="120" as="geometry" />
        </mxCell>
        <mxCell id="TvlSTCDLhmuhTMKVUK1M-13" style="edgeStyle=orthogonalEdgeStyle;rounded=0;orthogonalLoop=1;jettySize=auto;html=1;exitX=1;exitY=0.5;exitDx=0;exitDy=0;" edge="1" parent="1" source="TvlSTCDLhmuhTMKVUK1M-7" target="TvlSTCDLhmuhTMKVUK1M-10">
          <mxGeometry relative="1" as="geometry" />
        </mxCell>
        <mxCell id="TvlSTCDLhmuhTMKVUK1M-7" value="if money &amp;gt; 10&amp;nbsp;" style="rhombus;whiteSpace=wrap;html=1;fillColor=none;" vertex="1" parent="1">
          <mxGeometry x="80" y="540" width="110" height="110" as="geometry" />
        </mxCell>
        <mxCell id="TvlSTCDLhmuhTMKVUK1M-22" style="edgeStyle=orthogonalEdgeStyle;rounded=0;orthogonalLoop=1;jettySize=auto;html=1;exitX=1;exitY=0.5;exitDx=0;exitDy=0;entryX=0.5;entryY=0;entryDx=0;entryDy=0;" edge="1" parent="1" source="TvlSTCDLhmuhTMKVUK1M-8" target="TvlSTCDLhmuhTMKVUK1M-14">
          <mxGeometry relative="1" as="geometry" />
        </mxCell>
        <mxCell id="TvlSTCDLhmuhTMKVUK1M-8" value="message = &quot;You can buy a bottle of water&quot;" style="whiteSpace=wrap;html=1;aspect=fixed;fillColor=none;" vertex="1" parent="1">
          <mxGeometry x="235" y="305" width="80" height="80" as="geometry" />
        </mxCell>
        <mxCell id="TvlSTCDLhmuhTMKVUK1M-21" style="edgeStyle=orthogonalEdgeStyle;rounded=0;orthogonalLoop=1;jettySize=auto;html=1;exitX=1;exitY=0.5;exitDx=0;exitDy=0;" edge="1" parent="1" source="TvlSTCDLhmuhTMKVUK1M-9" target="TvlSTCDLhmuhTMKVUK1M-14">
          <mxGeometry relative="1" as="geometry" />
        </mxCell>
        <mxCell id="TvlSTCDLhmuhTMKVUK1M-9" value="message = &quot;You can buy a large bag of candy&quot;" style="whiteSpace=wrap;html=1;aspect=fixed;fillColor=none;" vertex="1" parent="1">
          <mxGeometry x="235" y="430" width="80" height="80" as="geometry" />
        </mxCell>
        <mxCell id="TvlSTCDLhmuhTMKVUK1M-23" style="edgeStyle=orthogonalEdgeStyle;rounded=0;orthogonalLoop=1;jettySize=auto;html=1;exitX=1;exitY=0.5;exitDx=0;exitDy=0;entryX=0.5;entryY=1;entryDx=0;entryDy=0;" edge="1" parent="1" source="TvlSTCDLhmuhTMKVUK1M-10" target="TvlSTCDLhmuhTMKVUK1M-14">
          <mxGeometry relative="1" as="geometry" />
        </mxCell>
        <mxCell id="TvlSTCDLhmuhTMKVUK1M-10" value="message = &quot;You can buy a stuffed panda&quot;" style="whiteSpace=wrap;html=1;aspect=fixed;fillColor=none;" vertex="1" parent="1">
          <mxGeometry x="235" y="555" width="80" height="80" as="geometry" />
        </mxCell>
        <mxCell id="TvlSTCDLhmuhTMKVUK1M-24" style="edgeStyle=orthogonalEdgeStyle;rounded=0;orthogonalLoop=1;jettySize=auto;html=1;exitX=1;exitY=0.5;exitDx=0;exitDy=0;entryX=0;entryY=0.5;entryDx=0;entryDy=0;" edge="1" parent="1" source="TvlSTCDLhmuhTMKVUK1M-14" target="TvlSTCDLhmuhTMKVUK1M-15">
          <mxGeometry relative="1" as="geometry" />
        </mxCell>
        <mxCell id="TvlSTCDLhmuhTMKVUK1M-14" value="output message" style="shape=parallelogram;perimeter=parallelogramPerimeter;whiteSpace=wrap;html=1;fixedSize=1;fillColor=none;" vertex="1" parent="1">
          <mxGeometry x="390" y="440" width="120" height="60" as="geometry" />
        </mxCell>
        <mxCell id="TvlSTCDLhmuhTMKVUK1M-15" value="Stop" style="ellipse;whiteSpace=wrap;html=1;aspect=fixed;fillColor=none;" vertex="1" parent="1">
          <mxGeometry x="560" y="430" width="80" height="80" as="geometry" />
        </mxCell>
        <mxCell id="TvlSTCDLhmuhTMKVUK1M-25" value="True" style="text;html=1;align=center;verticalAlign=middle;resizable=0;points=[];autosize=1;strokeColor=none;fillColor=none;" vertex="1" parent="1">
          <mxGeometry x="185" y="305" width="50" height="30" as="geometry" />
        </mxCell>
        <mxCell id="TvlSTCDLhmuhTMKVUK1M-26" value="True" style="text;html=1;align=center;verticalAlign=middle;resizable=0;points=[];autosize=1;strokeColor=none;fillColor=none;" vertex="1" parent="1">
          <mxGeometry x="185" y="430" width="50" height="30" as="geometry" />
        </mxCell>
        <mxCell id="TvlSTCDLhmuhTMKVUK1M-27" value="True" style="text;html=1;align=center;verticalAlign=middle;resizable=0;points=[];autosize=1;strokeColor=none;fillColor=none;" vertex="1" parent="1">
          <mxGeometry x="185" y="560" width="50" height="30" as="geometry" />
        </mxCell>
        <mxCell id="TvlSTCDLhmuhTMKVUK1M-28" value="False" style="text;html=1;align=center;verticalAlign=middle;resizable=0;points=[];autosize=1;strokeColor=none;fillColor=none;" vertex="1" parent="1">
          <mxGeometry x="60" y="390" width="50" height="30" as="geometry" />
        </mxCell>
        <mxCell id="TvlSTCDLhmuhTMKVUK1M-29" value="False" style="text;html=1;align=center;verticalAlign=middle;resizable=0;points=[];autosize=1;strokeColor=none;fillColor=none;" vertex="1" parent="1">
          <mxGeometry x="60" y="520" width="50" height="30" as="geometry" />
        </mxCell>
      </root>
    </mxGraphModel>
  </diagram>
</mxfile>
